PathFileType	4	(X/Y/Z)	C:\Users\ebm\Documents\Erivelton\Erivelton2\wc3.trc
DataRate	CameraRate	NumFrames	NumMarkers	Units	OrigDataRate	OrigDataStartFrame	OrigNumFrames
150.00	150.00	      46	28	mm	150.00	312	      1245
Frame#	Time	IJ			PX			C7			T8			RAC			RAS			RPS			RAI			RPI			RLE			RME			RRS			RUS			R3M			R5M			LAC			LAS			LPS			LAI			LPI			LLE			LME			LRS			LUS			L3M			L5M			RW			LW			V_mid_elbow_r			V_mid_elbow_l			V_mid_wrist_r			V_mid_wrist_l			V_mid_trunk_low			V_mid_trunk_upp			
		X1	Y1	Z1	X2	Y2	Z2	X3	Y3	Z3	X4	Y4	Z4	X5	Y5	Z5	X6	Y6	Z6	X7	Y7	Z7	X8	Y8	Z8	X9	Y9	Z9	X10	Y10	Z10	X11	Y11	Z11	X12	Y12	Z12	X13	Y13	Z13	X14	Y14	Z14	X15	Y15	Z15	X16	Y16	Z16	X17	Y17	Z17	X18	Y18	Z18	X19	Y19	Z19	X20	Y20	Z20	X21	Y21	Z21	X22	Y22	Z22	X23	Y23	Z23	X24	Y24	Z24	X25	Y25	Z25	X26	Y26	Z26	X27	Y27	Z27	X28	Y28	Z28	

312	2.073							-1754.33411	1125.12878	-52.19912				-1703.87622	1063.59631	149.94781																																																																						
313	2.080							-1749.17932	1124.88013	-52.59612				-1698.74268	1063.04907	149.61433																																																																						
314	2.087							-1743.97571	1124.60681	-52.97567				-1693.55994	1062.44250	149.32672																																																																						
315	2.093							-1738.84436	1124.39124	-53.35956				-1688.41736	1061.88074	149.01938																																																																						
316	2.100							-1733.72119	1124.19128	-53.75915				-1683.18530	1061.23352	148.70952																																																																						
317	2.107							-1728.52209	1123.92969	-54.19751				-1677.86426	1060.61218	148.43492																																																																						
318	2.113							-1723.26746	1123.60852	-54.58333				-1672.55322	1060.07153	148.17339																																																																						
319	2.120							-1718.10254	1123.35547	-55.02310				-1667.15942	1059.49719	147.89838																																																																						
320	2.127							-1712.94080	1123.10669	-55.48900				-1661.60864	1058.86523	147.57111																																																																						
321	2.133							-1707.77246	1122.84729	-55.97496				-1655.99109	1058.20544	147.23727																																																																						
322	2.140							-1702.48267	1122.57861	-56.48365				-1650.40698	1057.63269	146.88435																																																																						
323	2.147							-1697.14294	1122.32654	-57.02031				-1644.73755	1056.94434	146.57849																																																																						
324	2.153							-1691.73352	1122.10107	-57.59977				-1639.10193	1056.23340	146.28703																																																																						
325	2.160							-1686.29639	1121.89221	-58.11844				-1633.43457	1055.44019	146.00818																																																																						
326	2.167							-1680.77710	1121.70020	-58.67953				-1627.77295	1054.66064	145.76566																																																																						
327	2.173							-1675.23169	1121.50146	-59.17278				-1622.03503	1053.97546	145.49863																																																																						
328	2.180							-1669.74329	1121.34375	-59.72697				-1616.18018	1053.24500	145.14270																																																																						
329	2.187							-1664.33582	1121.14343	-60.25642				-1610.34363	1052.71179	144.84517																																																																						
330	2.193							-1658.90015	1120.93408	-60.78291				-1604.52490	1052.37439	144.51588							-1739.37122	857.15387	268.15973																																																													
331	2.200							-1653.44263	1120.74805	-61.26186				-1598.72949	1052.21826	144.20981							-1732.80688	856.97614	268.55447																																																													
332	2.207							-1648.01440	1120.60657	-61.80767				-1592.90295	1052.19568	143.86882							-1726.17346	856.73889	268.82437																																																													
333	2.213							-1642.53455	1120.51599	-62.27517				-1587.20776	1052.42468	143.50690							-1719.58704	856.42877	269.12152																																																													
334	2.220							-1637.00037	1120.48120	-62.77952				-1581.41187	1052.59204	143.02585							-1712.76929	855.97821	269.23923																																																													
335	2.227							-1631.43140	1120.52686	-63.26736				-1575.65881	1052.85059	142.54214							-1705.99976	855.56354	269.28760																																																													
336	2.233							-1625.82129	1120.67200	-63.78059				-1569.96423	1053.22949	142.08757							-1699.16418	855.04651	269.12836																																																													
337	2.240							-1620.13464	1120.87463	-64.23878				-1564.14355	1053.51233	141.64288							-1692.17432	854.41412	269.15872																																																													
338	2.247							-1614.40649	1121.15833	-64.66959				-1558.35889	1053.86731	141.28468							-1685.10999	853.76343	269.07657																																																													
339	2.253							-1608.70068	1121.50439	-65.06119	-1710.31409	989.87042	-52.33093	-1552.36731	1054.08740	140.91357							-1678.06641	853.22321	268.91251																																																													
340	2.260							-1602.92603	1121.86890	-65.44012	-1704.61987	990.58734	-52.66265	-1546.45618	1054.41125	140.52559				-1662.03210	941.60992	232.31744	-1670.86255	852.54681	268.93967																																																													
341	2.267							-1597.15625	1122.26172	-65.80735	-1698.95483	991.17700	-53.06393	-1540.47058	1054.72473	140.19620				-1655.34509	941.18726	232.54807	-1663.57129	851.80853	268.89249																																																													
342	2.273							-1591.36621	1122.64856	-66.16579	-1693.34119	991.79883	-53.37236	-1534.44348	1055.06714	139.91878				-1648.62549	940.66779	232.68825	-1656.31067	851.18536	268.59268																																																													
343	2.280							-1585.55066	1123.02942	-66.54188	-1687.66968	992.41980	-53.73887	-1528.40686	1055.37146	139.60600				-1641.91650	940.12750	232.79460	-1648.86035	850.34650	268.39261																																																													
344	2.287							-1579.76575	1123.38599	-66.90005	-1681.96863	992.99506	-54.08975	-1522.37048	1055.70862	139.35660				-1635.15601	939.46069	232.78613	-1641.37000	849.51477	268.03702																									-1632.49683	939.00775	-346.46851																																		
345	2.293							-1573.95654	1123.74146	-67.29283	-1676.26819	993.60114	-54.43757	-1516.33264	1056.09119	139.07530				-1628.42371	938.78552	232.69304	-1633.87695	848.66321	267.69281																									-1625.38086	938.32526	-347.02936																																		
346	2.300							-1568.10535	1124.08020	-67.68501	-1670.53284	994.19232	-54.79506	-1510.24109	1056.33020	138.79800				-1621.60925	937.98431	232.57738	-1626.26563	847.65491	267.27499																									-1618.24377	937.58905	-347.60437																																		
347	2.307							-1562.30518	1124.38867	-68.05283	-1664.81018	994.75299	-55.13362	-1504.22583	1056.68518	138.53400				-1614.81274	937.10852	232.44359	-1618.65686	846.68958	266.78766																									-1611.11401	936.90033	-348.10315																																		
348	2.313							-1556.45325	1124.65662	-68.45624	-1659.00342	995.24841	-55.47104	-1498.23596	1056.96045	138.25735				-1607.98621	936.12964	232.28903	-1610.94775	845.52899	266.33975																									-1604.01294	936.07965	-348.56320																																		
349	2.320							-1550.57898	1124.91284	-68.83867	-1653.21399	995.72217	-55.79300	-1492.28040	1057.22083	138.00031				-1601.10291	935.09735	232.19734	-1603.10791	844.19873	265.59485																									-1596.90771	935.24695	-349.02917																																		
350	2.327							-1544.68860	1125.10474	-69.18477	-1647.45374	996.15332	-56.09233	-1486.29773	1057.37256	137.71854				-1594.20923	933.94507	232.08527	-1595.30103	842.81537	264.86240																									-1589.74133	934.26324	-349.47327																									-1446.39099	540.92401	-392.75024							
351	2.333							-1538.84534	1125.24731	-69.53801	-1641.65869	996.51239	-56.42188	-1480.45056	1057.59021	137.52997				-1587.65649	933.16803	232.31807	-1587.42871	841.39526	264.47308																									-1582.55920	933.23059	-349.88574																									-1436.50806	538.85608	-392.97592							
352	2.340							-1532.97815	1125.33728	-69.84641	-1635.81799	996.79681	-56.75345	-1474.51746	1057.66162	137.25551				-1580.61646	931.81158	232.22617	-1579.41968	839.87433	263.80231																									-1575.29468	932.11371	-350.31198																									-1426.65027	536.71039	-393.02628							
353	2.347							-1527.13489	1125.39429	-70.13002	-1630.02820	997.02551	-57.01788	-1468.61047	1057.69690	136.98232				-1573.53516	930.33063	232.07851	-1571.24463	838.07837	262.89139																						-1493.05383	1052.18604	-254.26633	-1567.93347	930.84821	-350.64050																									-1416.68823	534.51434	-393.19199							
354	2.353							-1521.31445	1125.41418	-70.45006	-1624.18701	997.20593	-57.27688	-1462.73108	1057.62732	136.76491				-1566.43030	928.85327	231.97766	-1563.02026	836.38379	262.17285																						-1487.53125	1052.11792	-254.69859	-1560.52710	929.55579	-350.98535																						-1449.91028	603.93304	-347.77271	-1406.75562	532.21405	-393.39035							
355	2.360							-1515.50610	1125.40381	-70.73093	-1618.37634	997.31714	-57.56171	-1456.81860	1057.52722	136.59465				-1559.23193	927.26062	231.88345	-1554.82190	834.58978	261.49069																						-1481.51221	1051.84595	-254.97665	-1553.01599	928.17834	-351.24167																						-1439.17542	602.47772	-348.24667	-1396.72571	529.82465	-393.48273							
356	2.367							-1509.68799	1125.30249	-70.98880	-1612.56348	997.39246	-57.77261	-1450.84583	1057.29810	136.39133				-1551.93274	925.55756	231.70100	-1546.51794	832.74823	260.87582																						-1475.53503	1051.49768	-255.26263	-1545.31787	926.66528	-351.49197																						-1428.45251	600.90894	-348.51660	-1386.81458	527.38312	-393.65448							
357	2.373							-1503.90845	1125.16138	-71.21765	-1606.77783	997.43689	-58.01694	-1444.95776	1057.10852	136.26839				-1544.64404	923.84882	231.53163	-1538.08081	830.94141	260.05435																						-1469.57495	1051.12781	-255.52806	-1537.62219	925.17505	-351.73584																-1449.18518	567.84833	-393.00601				-1417.60693	599.25494	-348.73700	-1376.78845	524.83337	-393.76184							
